<?xml version="1.0" encoding="utf-8"?>
<!-- Generator: Fusion 360, Shaper Origin Export Add-In, Version 1.8.0  -->
<svg xmlns="http://www.w3.org/2000/svg" xmlns:xlink="http://www.w3.org/1999/xlink" xmlns:shaper="http://www.shapertools.com/namespaces/shaper" shaper:fusionaddin="version:1.8.0" width="46.4620096cm" height="26.2222391cm" version="1.1" x="0cm" y="0cm" viewBox="0 0 46.4620096 26.2222391" enable-background="new 0 0 46.4620096 26.2222391" xml:space="preserve"><path d="M-9.454756,-3.8574681 L-9.454756,-3.8574681 -9.388979,-3.9602018 -9.3243784,-4.0638677 -9.2609222,-4.1684364 -9.1985784,-4.2738785 -9.1373149,-4.3801647 -9.0770997,-4.4872656 -9.0179007,-4.5951517 -8.9596858,-4.7037936 -8.9024231,-4.8131621 -8.8460804,-4.9232276 -8.7906257,-5.0339607 -8.7360269,-5.1453322 -8.6822521,-5.2573126 -8.6292691,-5.3698724 -8.5770458,-5.4829824 -8.5255503,-5.596613 -8.4747505,-5.710735 -8.4246143,-5.825319 -8.3751097,-5.9403354 -8.3262046,-6.055755 -8.277867,-6.1715483 -8.2300648,-6.287686 -8.1359384,-6.5208769 -8.043569,-6.7550924 -7.9527003,-6.9900975 -7.8630757,-7.2256569 -7.7744389,-7.4615356 -7.5991028,-7.9333101 -7.5118907,-8.1687356 -7.4246406,-8.4035398 -7.3370962,-8.6374874 -7.249001,-8.8703434 -7.1600986,-9.1018726 -7.0701325,-9.3318399 -7.0246704,-9.4461643 -6.9788463,-9.56001 -6.9326281,-9.6733477 -6.8859837,-9.786148 -6.8388811,-9.8983813 -6.7912882,-10.0100185 -6.7431729,-10.12103 -6.6945033,-10.2313865 -6.6452472,-10.3410585 -6.5953726,-10.4500167 -6.5448475,-10.5582318 -6.4936398,-10.6656742 -6.4417174,-10.7723146 -6.3890484,-10.8781237 -6.3356005,-10.9830719 -6.2813419,-11.08713 -6.2262404,-11.1902685 -6.170264,-11.292458 -6.1133806,-11.3936692 -6.0555581,-11.4938727 -5.9967646,-11.593039 -5.936968,-11.6911387 -5.8761362,-11.7881425 -5.8142371,-11.884021 -5.7512388,-11.9787448 -5.6871091,-12.0722845 -5.621816,-12.1646106 -5.5553275,-12.2556939 -5.4876115,-12.3455049 -5.4186359,-12.4340141 -5.3483687,-12.5211923 -5.2767779,-12.6070101 -5.2038313,-12.6914379 -5.129497,-12.7744465 -5.0537428,-12.8560065 -4.9765368,-12.9360884 -4.8978469,-13.0146628 -4.8176409,-13.0917004 -4.735887,-13.1671718 -4.6525529,-13.2410476 -4.5676068,-13.3132984 -4.4810164,-13.3838947 -4.3927498,-13.4528073 -4.3479779,-13.4866229 -4.3027749,-13.5200066 -4.2571368,-13.5529546 -4.2110596,-13.5854634 -4.1645393,-13.6175291 -4.117572,-13.6491481 -4.0701535,-13.6803169 -4.0222798,-13.7110315 -3.9739471,-13.7412885 -3.9251512,-13.7710842 -3.8758882,-13.8004148 -3.826154,-13.8292766 -3.7759447,-13.8576661 -3.7252562,-13.8855796 -3.6740846,-13.9130132 -3.6224257,-13.9399635 -3.5702757,-13.9664267 -3.5176305,-13.9923991 -3.4644862,-14.0178771 -3.4108386,-14.042857 -3.3566838,-14.0673351 -3.3020178,-14.0913078 -3.2468365,-14.1147713 -3.1911361,-14.137722 -3.1349124,-14.1601562 -3.0781615,-14.1820703 -3.0208793,-14.2034605 -2.9630619,-14.2243233 -2.9047052,-14.2446549 -2.8458053,-14.2644516 -2.786358,-14.2837098 -2.7263595,-14.3024258 -2.6658057,-14.3205959 -2.6046927,-14.3382165 -2.5430163,-14.3552838 -2.4807726,-14.3717943 -2.4179576,-14.3877442 -2.3545673,-14.4031298 -2.2905976,-14.4179475 -2.2260446,-14.4321937 -2.1609043,-14.4458645 -2.0951726,-14.4589565 -2.0288456,-14.4714658 -1.9619192,-14.4833888 -1.8943895,-14.4947219 -1.8262524,-14.5054613 -1.7575039,-14.5156034 -1.68814,-14.5251445 -1.6181567,-14.534081 -1.5475501,-14.5424091 -1.476316,-14.5501252 -1.4044505,-14.5572257 -1.3319496,-14.5637068 -1.2588093,-14.5695648 -1.1850255,-14.5747962 -1.1105943,-14.5793971 -1.0355116,-14.583364 -0.9597735,-14.5866932 -0.883376,-14.589381 -0.8063149,-14.5914237 -0.7285864,-14.5928177 -0.6501865,-14.5935592 -0.571111,-14.5936446 -0.491356,-14.5930703 -0.4109176,-14.5918325 -0.3297916,-14.5899276 -0.2479742,-14.5873519 -0.1654612,-14.5841017 -0.0822487,-14.5801734 0.0016674,-14.5755633 0.086291,-14.5702676 0.1716261,-14.5642828 0.2576768,-14.5576052 0.344447,-14.550231 0.344447,-14.550231 0.4193041,-14.543201 0.4940696,-14.5353912 0.5687384,-14.5268059 0.643305,-14.5174494 0.7177642,-14.5073262 0.7921107,-14.4964405 0.8663392,-14.4847967 0.9404444,-14.472399 1.014421,-14.459252 1.0882637,-14.4453598 1.1619672,-14.4307269 1.2355263,-14.4153575 1.3089355,-14.399256 1.3821897,-14.3824268 1.4552835,-14.3648741 1.5282117,-14.3466023 1.6009689,-14.3276158 1.6735498,-14.3079189 1.7459492,-14.2875159 1.8181617,-14.2664111 1.890182,-14.244609 1.9620049,-14.2221138 2.0336251,-14.1989299 2.1050373,-14.1750615 2.1762361,-14.1505131 2.2472162,-14.125289 2.3179725,-14.0993936 2.3884995,-14.072831 2.458792,-14.0456058 2.5288447,-14.0177222 2.5986522,-13.9891846 2.6682094,-13.9599973 2.7375108,-13.9301646 2.8065513,-13.8996909 2.8753255,-13.8685805 2.943828,-13.8368378 3.0120537,-13.804467 3.0799972,-13.7714726 3.1476532,-13.7378589 3.2150164,-13.7036301 3.2820816,-13.6687907 3.3488433,-13.633345 3.4152964,-13.5972973 3.4814356,-13.560652 3.5472555,-13.5234133 3.6127508,-13.4855857 3.6779163,-13.4471734 3.7427466,-13.4081808 3.8072365,-13.3686123 3.8713806,-13.3284721 3.9351737,-13.2877646 3.9986105,-13.2464942 4.0616856,-13.2046652 4.1243939,-13.1622819 4.1867298,-13.1193487 4.2486883,-13.0758698 4.310264,-13.0318497 4.3714515,-12.9872927 4.4322456,-12.9422031 4.4926411,-12.8965852 4.5526325,-12.8504434 4.6122146,-12.803782 4.6713822,-12.7566054 4.7301298,-12.7089179 4.7884523,-12.6607238 4.8463443,-12.6120275 4.9038005,-12.5628333 4.9608156,-12.5131455 5.0173843,-12.4629685 5.0735014,-12.4123066 5.1291616,-12.3611642 5.1843594,-12.3095456 5.2390897,-12.2574551 5.2933472,-12.204897 5.3471265,-12.1518758 5.4004224,-12.0983957 5.4532295,-12.0444611 5.5055426,-11.9900763 5.5573563,-11.9352457 5.6086655,-11.8799735 5.6594647,-11.8242642 5.7097486,-11.768122 5.7595121,-11.7115513 5.8087497,-11.6545565 5.8574563,-11.5971418 5.9056264,-11.5393117 5.9532548,-11.4810704 6.0003362,-11.4224223 6.0468654,-11.3633717 6.0928369,-11.303923 6.1382455,-11.2440804 6.183086,-11.1838485 6.227353,-11.1232313 6.2710412,-11.0622334 6.3141453,-11.000859 6.3566601,-10.9391126 6.3985801,-10.8769983 6.4399003,-10.8145206 6.4806151,-10.7516838 6.5207195,-10.6884922 6.5602079,-10.6249502 6.5990752,-10.5610621 6.6373161,-10.4968322 6.6749252,-10.4322649 6.7118973,-10.3673646 6.7482271,-10.3021355 6.7839092,-10.236582 6.8189384,-10.1707084 6.8533094,-10.1045191 6.8870169,-10.0380183 6.9200555,-9.9712106 6.95242,-9.9041001 6.9841052,-9.8366912 7.0151056,-9.7689882 7.045416,-9.7009956 7.0750312,-9.6327176 7.1039457,-9.5641585 7.1321544,-9.4953228 7.1596518,-9.4262146 7.1864328,-9.3568385 7.212492,-9.2871987 7.2378242,-9.2172995 7.262424,-9.1471453 7.2862861,-9.0767404 7.3094052,-9.0060892 7.3317761,-8.935196 7.3533934,-8.8640651 7.3742519,-8.7927009 7.3742519,-8.7927009 7.401745,-8.6943635 7.4280401,-8.5956036 7.4531938,-8.496443 7.4772625,-8.3969037 7.5003027,-8.2970077 7.5223709,-8.1967767 7.5435236,-8.0962326 7.5638173,-7.9953975 7.5833085,-7.8942931 7.6020537,-7.7929413 7.6201094,-7.6913641 7.6375321,-7.5895834 7.6707043,-7.3854988 7.7020224,-7.1808628 7.7319383,-6.9758505 7.7609039,-6.770637 7.8177924,-6.3603073 7.8466191,-6.1555414 7.8763034,-5.951275 7.9072973,-5.7476833 7.9400527,-5.5449414 7.9572322,-5.4439439 7.9750215,-5.3432245 7.9934772,-5.2428052 8.0126558,-5.1427078 8.0326137,-5.0429542 8.0534075,-4.9435663 8.0750936,-4.8445661 8.0977285,-4.7459754 8.1213688,-4.6478161 8.1460709,-4.5501101 8.1718913,-4.4528793 8.1988865,-4.3561456 8.227113,-4.2599309 8.2566273,-4.1642571 8.2874859,-4.0691461 8.3197453,-3.9746197 8.353462,-3.8806999 8.3886924,-3.7874086 8.4254932,-3.6947677 8.4639207,-3.602799 8.5040314,-3.5115244 8.5458819,-3.420966 8.5895287,-3.3311454 8.6350282,-3.2420847 8.682437,-3.1538058 8.7318115,-3.0663304 8.7832082,-2.9796806 8.8366837,-2.8938782 8.8922944,-2.8089452 8.9500968,-2.7249033 8.9798375,-2.6832234 9.0101474,-2.6417745 9.0410334,-2.6005594 9.0725027,-2.5595808 9.0725027,-2.5595808 9.1085989,-2.5137862 9.1452486,-2.4685551 9.1824425,-2.4238784 9.2201714,-2.3797468 9.258426,-2.3361509 9.297197,-2.2930815 9.3364751,-2.2505293 9.376251,-2.2084851 9.4165156,-2.1669396 9.4572594,-2.1258835 9.4984732,-2.0853075 9.5401478,-2.0452023 9.5822738,-2.0055587 9.624842,-1.9663674 9.6678431,-1.9276191 9.7112678,-1.8893046 9.7993509,-1.8139397 9.8890172,-1.7401984 9.9801923,-1.6680067 10.0728022,-1.5972902 10.1667724,-1.5279747 10.2620288,-1.4599861 10.3584972,-1.3932502 10.4561033,-1.3276927 10.5547729,-1.2632395 10.6544318,-1.1998163 10.7550057,-1.1373489 10.8564204,-1.0757632 10.9586016,-1.0149849 11.0614753,-0.9549399 11.164967,-0.8955538 11.2690025,-0.8367526 11.4784084,-0.7206078 11.689099,-0.6059119 12.1119588,-0.3784919 12.3229404,-0.2645806 12.5328312,-0.1497436 12.637182,-0.0917924 12.7410375,-0.0333872 12.8443233,0.0255462 12.9469654,0.0850821 13.0488893,0.1452946 13.1500209,0.206258 13.250286,0.2680465 13.3496104,0.3307342 13.4479197,0.3943954 13.5451399,0.4591042 13.6411965,0.5249349 13.7360155,0.5919617 13.8295225,0.6602588 13.9216434,0.7299004 14.0123039,0.8009607 14.1014298,0.8735139 14.1889468,0.9476341 14.2320788,0.9853051 14.2747808,1.0233957 14.3170434,1.0619152 14.3588574,1.1008728 14.4002135,1.1402778 14.4411025,1.1801396 14.481515,1.2204673 14.5214418,1.2612703 14.5608736,1.3025578 14.5998011,1.3443391 14.638215,1.3866235 14.6761061,1.4294203 14.7134651,1.4727386 14.7502827,1.5165879 14.7865496,1.5609774 14.8222565,1.6059164 14.8573943,1.651414 14.8919535,1.6974797 14.9259249,1.7441227 14.9592992,1.7913522 14.9920672,1.8391776 15.0242196,1.8876081 15.0242196,1.8876081 15.0606965,1.9445728 15.0959125,2.0018615 15.1298754,2.0594649 15.1625926,2.1173736 15.1940718,2.175578 15.2243207,2.2340689 15.2533469,2.2928368 15.281158,2.3518723 15.3077615,2.411166 15.3331653,2.4707085 15.3573767,2.5304904 15.3804036,2.5905022 15.4022534,2.6507346 15.4229339,2.7111782 15.4424526,2.7718235 15.4608171,2.8326611 15.4780352,2.8936817 15.4941144,2.9548759 15.5090623,3.0162341 15.5228865,3.077747 15.5355948,3.1394053 15.5471946,3.2011995 15.5576936,3.2631201 15.5670995,3.3251578 15.5754199,3.3873032 15.5826623,3.4495469 15.5888345,3.5118794 15.5939439,3.5742914 15.5979984,3.6367734 15.6010054,3.6993161 15.6029726,3.7619099 15.6039076,3.8245456 15.603818,3.8872138 15.6027115,3.9499049 15.6005957,4.0126096 15.5974782,4.0753185 15.5933667,4.1380222 15.5882686,4.2007113 15.5821918,4.2633763 15.5751437,4.3260079 15.5671321,4.3885967 15.5581645,4.4511332 15.5482485,4.513608 15.5373918,4.5760118 15.5256021,4.6383351 15.5128868,4.7005685 15.4992537,4.7627026 15.4847104,4.824728 15.4692645,4.8866353 15.4529235,4.9484151 15.4356952,5.0100579 15.4175872,5.0715545 15.3986071,5.1328952 15.3787624,5.1940709 15.3580609,5.255072 15.3365101,5.3158891 15.3141176,5.3765129 15.2908912,5.4369338 15.2668384,5.4971426 15.2419668,5.5571298 15.216284,5.616886 15.1897978,5.6764018 15.1625156,5.7356678 15.1344452,5.7946746 15.1055941,5.8534127 15.0759699,5.9118728 15.0455804,5.9700454 15.014433,6.0279212 14.9825355,6.0854908 14.9498954,6.1427446 14.9165204,6.1996734 14.8824181,6.2562677 14.8475961,6.3125181 14.8120621,6.3684152 14.7758236,6.4239496 14.7388883,6.4791119 14.7012638,6.5338927 14.6629578,6.5882826 14.6239777,6.6422721 14.5843314,6.6958518 14.5440263,6.7490124 14.5030702,6.8017445 14.4614706,6.8540386 14.4192351,6.9058853 14.3763715,6.9572752 14.3328872,7.0081989 14.28879,7.0586471 14.2440874,7.1086102 14.1987871,7.1580789 14.1528966,7.2070438 14.1064237,7.2554955 14.0593759,7.3034245 14.0117609,7.3508215 13.9635863,7.3976771 13.9148596,7.4439817 13.8655886,7.4897262 13.8157808,7.5349009 13.7654439,7.5794966 13.7145855,7.6235037 13.6632131,7.666913 13.6113346,7.709715 13.5589573,7.7519002 13.5060891,7.7934594 13.4527374,7.834383 13.39891,7.8746617 13.3446144,7.914286 13.2898582,7.9532466 13.2346492,7.991534 13.1789948,8.0291389 13.1229028,8.0660517 13.0663808,8.1022633 13.0094363,8.137764 12.952077,8.1725445 12.8943105,8.2065954 12.8361445,8.2399073 12.7775865,8.2724708 12.7186442,8.3042765 12.6593252,8.3353149 12.5996372,8.3655767 12.5395877,8.3950525 12.4791843,8.4237327 12.4184348,8.4516082 12.3573467,8.4786693 12.2959276,8.5049068 12.2341851,8.5303112 12.172127,8.554873 12.1097607,8.578583 12.047094,8.6014317 12.047094,8.6014317 11.9842195,8.6235424 11.9212182,8.6450448 11.8580918,8.6659434 11.7948421,8.6862428 11.7314706,8.7059473 11.6679792,8.7250614 11.5406431,8.7615368 11.4128471,8.7957049 11.2846049,8.8276016 11.1559298,8.8572629 11.0268353,8.8847247 10.8973349,8.910023 10.7674422,8.9331938 10.6371705,8.9542729 10.5065334,8.9732964 10.3755443,8.9903003 10.2442168,9.0053204 10.1125642,9.0183927 9.9806001,9.0295533 9.848338,9.0388379 9.7157913,9.0462827 9.5829735,9.0519235 9.4498981,9.0557963 9.3165786,9.0579371 9.1830284,9.0583818 9.0492611,9.0571664 8.9152901,9.0543269 8.7811289,9.0498991 8.6467909,9.043919 8.5122898,9.0364227 8.3776388,9.027446 8.2428516,9.0170249 8.1079415,9.0051954 7.9729221,8.9919934 7.8378069,8.9774549 7.7026093,8.9616159 7.5673428,8.9445122 7.4320209,8.9261799 7.2966571,8.9066548 7.1612649,8.8859731 7.0258576,8.8641705 6.8904489,8.8412832 6.7550521,8.8173469 6.6196809,8.7923978 6.4843486,8.7664716 6.3490687,8.7396045 6.2138547,8.7118323 6.0787201,8.6831911 5.9436784,8.6537167 5.808743,8.6234451 5.6739275,8.5924123 5.5392452,8.5606542 5.4047098,8.5282068 5.2703346,8.4951061 5.1361332,8.4613879 4.8683054,8.3922432 4.6013345,8.3210604 4.3353281,8.2481271 4.0703941,8.173731 3.8066404,8.0981597 3.5441748,8.0217009 3.5441748,8.0217009 3.2820234,7.9446343 3.0191642,7.8672295 2.7556416,7.7897795 2.4915002,7.7125773 2.2267847,7.635916 1.9615395,7.5600887 1.6958093,7.4853882 1.4296386,7.4121078 1.1630719,7.3405403 0.8961539,7.2709789 0.7625771,7.2370421 0.6289291,7.2037166 0.4952156,7.1710392 0.3614421,7.1390465 0.2276142,7.107775 0.0937374,7.0772614 -0.0401826,7.0475425 -0.1741404,7.0186546 -0.3081303,6.9906346 -0.4421467,6.9635191 -0.5761841,6.9373446 -0.710237,6.9121478 -0.8442996,6.8879653 -0.9783666,6.8648338 -1.1124323,6.8427899 -1.2464911,6.8218702 -1.3805375,6.8021113 -1.5145658,6.7835499 -1.6485706,6.7662226 -1.7825463,6.7501661 -1.9164872,6.7354169 -2.0503878,6.7220117 -2.1842426,6.7099871 -2.318046,6.6993798 -2.4517923,6.6902264 -2.5854761,6.6825635 -2.7190917,6.6764277 -2.8526336,6.6718557 -2.9860962,6.6688841 -3.119474,6.6675495 -3.2527614,6.6678886 -3.3859527,6.669938 -3.5190425,6.6737343 -3.6520251,6.6793141 -3.7848951,6.6867141 -3.9176467,6.695971 -4.0502745,6.7071212 -4.1827729,6.7202016 -4.3151363,6.7352486 -4.4473591,6.752299 -4.5794358,6.7713893 -4.7113608,6.7925562 -4.8431285,6.8158363 -4.9747333,6.8412663 -4.9747333,6.8412663 -5.0461193,6.8559923 -5.1173062,6.8713257 -5.1882997,6.8872497 -5.2591055,6.9037475 -5.4001763,6.9383967 -5.5405637,6.9751389 -5.6803127,7.0138391 -5.8194684,7.0543627 -5.9580758,7.0965749 -6.09618,7.1403411 -6.233826,7.1855265 -6.3710589,7.2319964 -6.5079238,7.279616 -6.6444656,7.3282506 -6.7807295,7.3777655 -6.9167605,7.428026 -7.1883041,7.5302448 -7.7305791,7.7377014 -8.0020313,7.8407835 -8.1379938,7.8916914 -8.2741739,7.9419977 -8.4106168,7.9915676 -8.5473674,8.0402663 -8.6844709,8.0879592 -8.8219722,8.1345114 -8.9599165,8.1797884 -9.0983487,8.2236553 -9.237314,8.2659774 -9.3768574,8.3066201 -9.3768574,8.3066201 -9.4469692,8.3262344 -9.517441,8.3453118 -9.5882566,8.3638379 -9.6593995,8.3817983 -9.7308535,8.3991785 -9.8026022,8.4159641 -9.8746293,8.4321407 -9.9469185,8.4476939 -10.0194534,8.4626092 -10.0922176,8.4768722 -10.165195,8.4904686 -10.238369,8.5033838 -10.3117234,8.5156034 -10.3852419,8.5271131 -10.4589081,8.5378984 -10.5327057,8.5479449 -10.6066183,8.5572381 -10.6806296,8.5657637 -10.7547233,8.5735072 -10.8288831,8.5804542 -10.9030926,8.5865903 -10.9773354,8.591901 -11.0515953,8.5963719 -11.1258559,8.5999886 -11.2001009,8.6027367 -11.274314,8.6046018 -11.3484787,8.6055694 -11.4225788,8.6056251 -11.496598,8.6047545 -11.5705199,8.6029432 -11.6443281,8.6001767 -11.7180064,8.5964406 -11.7915384,8.5917205 -11.8649078,8.586002 -11.9380982,8.5792706 -12.0110933,8.571512 -12.0838768,8.5627117 -12.1564323,8.5528552 -12.2287436,8.5419282 -12.3007942,8.5299163 -12.3725678,8.516805 -12.4440481,8.5025798 -12.5152188,8.4872264 -12.5860636,8.4707304 -12.656566,8.4530773 -12.7267098,8.4342527 -12.7964787,8.4142422 -12.8658562,8.3930313 -12.9348261,8.3706056 -13.0033721,8.3469508 -13.0714777,8.3220523 -13.1391267,8.2958958 -13.2063028,8.2684669 -13.2729895,8.2397511 -13.3391706,8.2097339 -13.4048297,8.1784011 -13.4699505,8.145738 -13.5345167,8.1117304 -13.5985119,8.0763638 -13.6619198,8.0396238 -13.7247241,8.001496 -13.7869084,7.9619659 -13.8484563,7.9210191 -13.9093517,7.8786411 -13.9093517,7.8786411 -13.9715884,7.8338609 -14.0326103,7.7889649 -14.0924242,7.7439547 -14.1510373,7.6988313 -14.2084564,7.653596 -14.2646885,7.6082502 -14.3197406,7.5627951 -14.3736197,7.517232 -14.4263327,7.4715621 -14.4778866,7.4257867 -14.5282884,7.379907 -14.5775451,7.3339244 -14.6256636,7.2878401 -14.6726508,7.2416554 -14.7185138,7.1953715 -14.7632596,7.1489897 -14.8068951,7.1025112 -14.8494272,7.0559375 -14.8908631,7.0092696 -14.9312095,6.9625088 -14.9704735,6.9156566 -15.0086621,6.868714 -15.0457822,6.8216824 -15.0818409,6.774563 -15.116845,6.7273572 -15.1508015,6.6800661 -15.1837175,6.6326911 -15.2155999,6.5852334 -15.2464557,6.5376942 -15.2762918,6.4900749 -15.3051152,6.4423767 -15.3329328,6.3946009 -15.3597518,6.3467488 -15.3855789,6.2988215 -15.4104213,6.2508204 -15.4342858,6.2027468 -15.4571795,6.1546019 -15.4791092,6.106387 -15.5000821,6.0581033 -15.520105,6.0097522 -15.5391849,5.9613348 -15.5573289,5.9128525 -15.5745438,5.8643065 -15.5908366,5.815698 -15.6062144,5.7670285 -15.620684,5.718299 -15.6342525,5.669511 -15.6469268,5.6206656 -15.6587139,5.5717641 -15.6696208,5.5228078 -15.6796544,5.473798 -15.6888217,5.4247359 -15.6971297,5.3756228 -15.7045854,5.3264599 -15.7111957,5.2772486 -15.7169676,5.22799 -15.7219081,5.1786856 -15.7260241,5.1293364 -15.7293226,5.0799439 -15.7318106,5.0305092 -15.733495,4.9810336 -15.7343829,4.9315184 -15.7344812,4.8819649 -15.7337969,4.8323743 -15.7323369,4.782748 -15.7301082,4.7330871 -15.7271178,4.6833929 -15.7233726,4.6336667 -15.7188797,4.5839098 -15.713646,4.5341234 -15.7076784,4.4843089 -15.700984,4.4344674 -15.6935698,4.3846002 -15.6854426,4.3347086 -15.6766094,4.2847939 -15.6670773,4.2348574 -15.6568532,4.1849002 -15.645944,4.1349238 -15.6343568,4.0849292 -15.6220985,4.0349179 -15.6091761,3.9848911 -15.5955966,3.9348499 -15.5813669,3.8847958 -15.566494,3.83473 -15.5509849,3.7846537 -15.5348465,3.7345683 -15.5180858,3.6844749 -15.5007098,3.6343748 -15.4827255,3.5842694 -15.4641398,3.5341598 -15.4251922,3.4339334 -15.3839227,3.3337058 -15.3403872,3.233487 -15.2946415,3.1332872 -15.2467412,3.0331165 -15.1967422,2.9329851 -15.1447003,2.8329031 -15.0906712,2.7328807 -15.0347106,2.632928 -14.9768744,2.5330551 -14.9172184,2.4332722 -14.8557982,2.3335894 -14.7926698,2.2340168 -14.7278888,2.1345646 -14.661511,2.035243 -14.5935922,1.936062 -14.5241881,1.8370318 -14.4533546,1.7381625 -14.3811474,1.6394643 -14.3076223,1.5409473 -14.2328351,1.4426217 -14.1568415,1.3444975 -14.0796972,1.246585 -14.0014582,1.1488943 -13.9221801,1.0514354 -13.8419187,0.9542186 -13.7607298,0.857254 -13.6786692,0.7605517 -13.5957926,0.6641218 -13.5121558,0.5679745 -13.4278145,0.47212 -13.3428247,0.3765683 -13.2572419,0.2813297 -13.0845209,0.0918319 -12.9100977,-0.0962922 -12.7344183,-0.2829614 -12.5579291,-0.4680948 -12.3810762,-0.6516112 -12.2043058,-0.8334295 -12.0280641,-1.0134685 -11.8527971,-1.1916473 -11.7656686,-1.2800137 -11.6789512,-1.3678846 -11.5927006,-1.4552499 -11.5069725,-1.5420995 -11.4218227,-1.6284231 -11.3373071,-1.7142107 -11.2534814,-1.7994521 -11.1704013,-1.8841371 -11.0881227,-1.9682557 -11.0067012,-2.0517978 -10.9261928,-2.134753 -10.846653,-2.2171114 -10.7681379,-2.2988628 -10.690703,-2.3799971 -10.6144041,-2.4605041 -10.5392971,-2.5403736 -10.4654377,-2.6195956 -10.3928817,-2.6981598 -10.3216849,-2.7760563 -10.251903,-2.8532747 -10.1835918,-2.9298051 -10.116807,-3.0056371 -10.0516045,-3.0807608 -9.98804,-3.155166 -9.9261693,-3.2288425 -9.8660482,-3.3017802 -9.8077324,-3.3739689 -9.7512777,-3.4453986 -9.6967399,-3.516059 -9.6441747,-3.5859401 -9.593638,-3.6550317 -9.5451854,-3.7233236 -9.4988729,-3.7908058 -9.454756,-3.8574681z" transform="matrix(1,0,0,-1,26.6066299,9.0583818)" stroke="rgb(100,100,100)" stroke-width="0.0010cm" stroke-linecap="round" stroke-linejoin="round" fill="none" /><path d="M17.9552174,0.2398619 L17.9552174,0.2398619 18.003145,0.2175483 18.0505901,0.1944541 18.0975486,0.170581 18.1440164,0.1459304 18.1899893,0.120504 18.2354632,0.0943032 18.280434,0.0673298 18.3248974,0.0395853 18.3688494,0.0110712 18.4122857,-0.0182109 18.4552023,-0.0482594 18.497595,-0.0790727 18.5394597,-0.1106493 18.5807921,-0.1429875 18.6215882,-0.1760859 18.6618437,-0.2099428 18.7015547,-0.2445566 18.7407168,-0.2799259 18.7793165,-0.31604 18.8172536,-0.3528029 18.8545026,-0.390181 18.8910639,-0.4281643 18.9269379,-0.4667431 18.9621251,-0.5059073 18.996626,-0.545647 19.0304408,-0.5859524 19.0635702,-0.6268135 19.0960145,-0.6682203 19.1277741,-0.7101631 19.1588495,-0.7526318 19.1892411,-0.7956165 19.2189493,-0.8391073 19.2479746,-0.8830944 19.2763174,-0.9275677 19.3039782,-0.9725174 19.3309573,-1.0179335 19.3572532,-1.0638023 19.382843,-1.1100687 19.4077226,-1.1567087 19.4318948,-1.2037112 19.4553626,-1.251065 19.4781287,-1.2987591 19.5001961,-1.3467825 19.5215677,-1.3951239 19.5422463,-1.4437723 19.5622348,-1.4927166 19.5815361,-1.5419458 19.6001531,-1.5914486 19.6180887,-1.641214 19.6353456,-1.6912309 19.6519269,-1.7414883 19.6678354,-1.791975 19.683074,-1.8426798 19.6976455,-1.8935918 19.7115528,-1.9446999 19.7247989,-1.9959928 19.7373865,-2.0474596 19.7493186,-2.099089 19.7605981,-2.1508702 19.7712278,-2.2027918 19.7812106,-2.2548429 19.7905494,-2.3070123 19.7992471,-2.359289 19.8073065,-2.4116618 19.8147306,-2.4641196 19.8215227,-2.516655 19.8276901,-2.5692922 19.8332354,-2.6220307 19.8381602,-2.6748617 19.8424656,-2.727776 19.8461532,-2.7807648 19.8492243,-2.8338189 19.8516802,-2.8869295 19.8535223,-2.9400876 19.854752,-2.9932841 19.8553707,-3.04651 19.8553798,-3.0997565 19.8547805,-3.1530144 19.8535744,-3.2062748 19.8517627,-3.2595287 19.8493468,-3.3127672 19.8463282,-3.3659811 19.8427081,-3.4191616 19.838488,-3.4722997 19.8336692,-3.5253863 19.8282531,-3.5784125 19.8156344,-3.6842477 19.8006431,-3.7897333 19.7922611,-3.8423226 19.78329,-3.8947975 19.7737312,-3.947149 19.7635861,-3.9993682 19.752856,-4.0514461 19.7415424,-4.1033737 19.7296465,-4.1551419 19.7171699,-4.2067419 19.7041137,-4.2581646 19.6904771,-4.30941 19.6762507,-4.3605055 19.6614333,-4.4114455 19.6460248,-4.4622203 19.6300251,-4.5128204 19.6134339,-4.5632361 19.5962512,-4.6134577 19.5784767,-4.6634756 19.5601104,-4.7132803 19.541152,-4.762862 19.5216015,-4.8122112 19.5014586,-4.8613182 19.4807233,-4.9101734 19.4593953,-4.9587671 19.4374746,-5.0070898 19.4149609,-5.0551318 19.3918541,-5.1028835 19.3681541,-5.1503352 19.3438606,-5.1974773 19.3189736,-5.2443003 19.293493,-5.2907943 19.2674184,-5.33695 19.2407499,-5.3827575 19.2134872,-5.4282073 19.1856302,-5.4732897 19.1571787,-5.5179952 19.1281326,-5.5623141 19.0984917,-5.6062367 19.068256,-5.6497534 19.068256,-5.6497534 19.0149419,-5.7273013 18.9636495,-5.8058462 18.9143777,-5.8854125 18.8671252,-5.9660246 18.821891,-6.0477067 18.7786739,-6.1304833 18.7374728,-6.2143787 18.6982865,-6.2994172 18.6611141,-6.3856232 18.6259547,-6.4730197 18.592947,-6.5612346 18.56216,-6.6499726 18.5335374,-6.7392436 18.5070228,-6.8290574 18.4825601,-6.9194238 18.4600928,-7.0103529 18.4395648,-7.1018544 18.4209198,-7.1939382 18.4041014,-7.2866142 18.389066,-7.3798086 18.3757842,-7.4732879 18.3641847,-7.5670315 18.354194,-7.6610327 18.3457383,-7.7552847 18.3387439,-7.849781 18.3331373,-7.9445147 18.3288448,-8.0394793 18.3257926,-8.134668 18.3239072,-8.230074 18.3231149,-8.3256908 18.3233421,-8.4215117 18.324515,-8.5175298 18.3265601,-8.6137386 18.3294036,-8.7101314 18.3329719,-8.8067014 18.3371914,-8.9034419 18.3472892,-9.0974081 18.3591101,-9.2919912 18.3720675,-9.4871482 18.3855744,-9.6828276 18.3990435,-9.8789778 18.4118876,-10.0755473 18.4235195,-10.2724846 18.433352,-10.4697381 18.43741,-10.5684673 18.4407979,-10.6672561 18.4434424,-10.7660983 18.4452701,-10.8649873 18.4462074,-10.9639166 18.4461812,-11.0628799 18.4451179,-11.1618707 18.4429441,-11.2608825 18.4395865,-11.3599089 18.4349716,-11.4589435 18.4290261,-11.5579798 18.4216765,-11.6570114 18.4216765,-11.6570114 18.4103465,-11.7832939 18.3969807,-11.9094665 18.3815823,-12.035478 18.3641547,-12.1612773 18.3447012,-12.2868135 18.3232252,-12.4120355 18.2997299,-12.5368921 18.2742189,-12.6613323 18.2466952,-12.7853051 18.2171624,-12.9087593 18.1856238,-13.031644 18.1520826,-13.153908 18.1165315,-13.275535 18.0789199,-13.3966334 18.0392368,-13.5171583 17.9974776,-13.6370429 17.9536379,-13.7562203 17.9077131,-13.8746236 17.8596987,-13.9921859 17.8095902,-14.1088404 17.7573831,-14.22452 17.7030727,-14.339158 17.6466547,-14.4526874 17.617654,-14.5090155 17.5881245,-14.5650413 17.5580659,-14.6207566 17.5274674,-14.6761705 17.4963147,-14.7312965 17.4646072,-14.7861231 17.4323445,-14.8406386 17.399526,-14.8948314 17.3661511,-14.9486899 17.3322195,-15.0022025 17.2977306,-15.0553576 17.2626838,-15.1081436 17.2270786,-15.1605488 17.1909147,-15.2125616 17.1541913,-15.2641705 17.1169081,-15.3153637 17.0790645,-15.3661298 17.0406599,-15.416457 17.001694,-15.4663337 16.9621662,-15.5157484 16.9220759,-15.5646894 16.8814226,-15.6131451 16.840206,-15.6611038 16.7984253,-15.7085541 16.7560802,-15.7554842 16.71317,-15.8018825 16.6696944,-15.8477374 16.6256527,-15.8930374 16.5810446,-15.9377707 16.5358693,-15.9819258 16.4901266,-16.0254911 16.4438158,-16.0684549 16.3969364,-16.1108055 16.3495207,-16.1525016 16.3015984,-16.1935066 16.2531711,-16.2338106 16.2042404,-16.2734039 16.154808,-16.3122765 16.1048756,-16.3504187 16.0544449,-16.3878206 16.0035175,-16.4244723 15.9520951,-16.4603641 15.9001794,-16.4954861 15.847772,-16.5298285 15.7948747,-16.5633814 15.741489,-16.596135 15.6876167,-16.6280794 15.6332593,-16.6592049 15.5784187,-16.6895015 15.5230964,-16.7189595 15.4672942,-16.747569 15.4110136,-16.7753202 15.3542564,-16.8022031 15.2970242,-16.8282081 15.2393187,-16.8533253 15.1811416,-16.8775447 15.1224946,-16.9008567 15.0634845,-16.9232128 15.0042565,-16.944559 14.9448153,-16.9648975 14.8851647,-16.9842306 14.8253086,-17.0025609 14.7652509,-17.0198909 14.7049955,-17.0362231 14.6445462,-17.0515599 14.5839069,-17.0659039 14.5230816,-17.0792574 14.462074,-17.0916231 14.4008881,-17.1030033 14.3395277,-17.1134005 14.2779968,-17.1228173 14.2162991,-17.1312561 14.1544386,-17.1387195 14.0924192,-17.1452098 14.0302447,-17.1507295 13.967919,-17.1552812 13.9054461,-17.1588674 13.8428296,-17.1614904 13.7800737,-17.1631529 13.7171821,-17.1638572 13.6541586,-17.1636059 13.5910073,-17.1624014 13.5910073,-17.1624014 13.4902385,-17.1590235 13.389547,-17.1542544 13.2889486,-17.1481011 13.188459,-17.1405705 13.0880941,-17.1316696 12.9878696,-17.1214054 12.8878012,-17.1097848 12.7879047,-17.0968148 12.6881959,-17.0825023 12.5886905,-17.0668542 12.4894043,-17.0498777 12.3903531,-17.0315795 12.2915525,-17.0119666 12.1930185,-16.9910461 12.0947666,-16.9688248 11.9968128,-16.9453097 11.8991727,-16.9205078 11.8018622,-16.894426 11.7048969,-16.8670714 11.6082926,-16.8384507 11.5120601,-16.8085694 11.4161981,-16.7774287 11.3207246,-16.745035 11.2256597,-16.7113957 11.1310232,-16.6765179 11.036835,-16.6404088 10.9431151,-16.6030757 10.8498834,-16.5645258 10.7571597,-16.5247662 10.6649641,-16.4838042 10.5733164,-16.4416469 10.4822366,-16.3983016 10.3917445,-16.3537755 10.3018601,-16.3080758 10.2126033,-16.2612097 10.1239941,-16.2131843 10.0360523,-16.164007 9.9487979,-16.1136848 9.8622507,-16.0622251 9.7764308,-16.009635 9.6913025,-15.9558848 9.6068357,-15.9009437 9.5230629,-15.8448202 9.4400169,-15.7875225 9.3577305,-15.7290594 9.2762363,-15.6694391 9.1955671,-15.6086703 9.1157557,-15.5467613 9.0368346,-15.4837206 8.9588367,-15.4195568 8.8817947,-15.3542782 8.8057413,-15.2878934 8.7307092,-15.2204109 8.6567311,-15.151839 8.5838398,-15.0821863 8.5120681,-15.0114612 8.4414485,-14.9396723 8.3720139,-14.8668279 8.3037969,-14.7929366 8.2368304,-14.7180068 8.1711469,-14.6420471 8.1067793,-14.5650658 8.0437602,-14.4870715 7.982116,-14.4080623 7.921845,-14.3279846 7.86299,-14.2468448 7.8056017,-14.1646608 7.749731,-14.0814509 7.6954287,-13.9972331 7.6427455,-13.9120257 7.5917322,-13.8258466 7.5424397,-13.7387141 7.4949187,-13.6506463 7.44922,-13.5616613 7.4053944,-13.4717772 7.3634927,-13.3810123 7.3235657,-13.2893845 7.2856642,-13.1969121 7.249839,-13.1036132 7.2161408,-13.0095059 7.1846258,-12.914624 7.155404,-12.8191715 7.1416716,-12.771259 7.128531,-12.7232266 7.1159869,-12.6750775 7.1040437,-12.626815 7.0927061,-12.5784422 7.0819787,-12.5299623 7.0718659,-12.4813786 7.0623725,-12.4326942 7.0535029,-12.3839124 7.0452618,-12.3350364 7.0376537,-12.2860693 7.0306832,-12.2370144 7.024355,-12.1878749 7.0186735,-12.1386539 7.0136433,-12.0893548 7.0092691,-12.0399806 7.0055553,-11.9905347 7.0025067,-11.9410201 7.0001277,-11.8914402 6.998423,-11.8417981 6.997397,-11.792097 6.9970545,-11.7423402 6.9974,-11.6925307 6.998438,-11.642672 7.0001731,-11.592767 7.0026071,-11.5428667 7.0057335,-11.4930991 7.0095494,-11.4434725 7.0140522,-11.3939885 7.0192395,-11.3446488 7.0251086,-11.295455 7.0316571,-11.2464087 7.0388823,-11.1975115 7.0467818,-11.1487651 7.055353,-11.100171 7.0645933,-11.0517309 7.0745002,-11.0034464 7.0850711,-10.9553191 7.0963036,-10.9073507 7.108195,-10.8595427 7.1207428,-10.8118968 7.1339445,-10.7644146 7.1477976,-10.7170977 7.1622994,-10.6699478 7.1774475,-10.6229664 7.1932392,-10.5761552 7.2096721,-10.5295158 7.2267436,-10.4830498 7.2444511,-10.4367588 7.2627922,-10.3906445 7.2817642,-10.3447085 7.3013646,-10.2989523 7.3215909,-10.2533777 7.3424405,-10.2079862 7.3639032,-10.1627951 7.3859257,-10.1179034 7.4084924,-10.0733281 7.4315959,-10.0290685 7.455229,-9.9851242 7.4793842,-9.9414946 7.5292322,-9.8551773 7.5810813,-9.7701122 7.6348732,-9.6862949 7.6905492,-9.603721 7.7480511,-9.5223862 7.8073202,-9.442286 7.8682982,-9.3634161 7.9309265,-9.2857721 7.9951467,-9.2093496 8.0609004,-9.1341441 8.1281289,-9.0601514 8.196774,-8.9873671 8.266777,-8.9157866 8.3380796,-8.8454058 8.4106232,-8.7762201 8.4843494,-8.7082253 8.4843494,-8.7082253 8.5635665,-8.6356991 8.6406504,-8.5638068 8.7156337,-8.4925388 8.7885489,-8.4218852 8.8594287,-8.3518365 8.9283056,-8.2823829 8.9952122,-8.2135147 9.0601811,-8.1452221 9.1232449,-8.0774956 9.1844362,-8.0103253 9.2437876,-7.9437016 9.3013315,-7.8776147 9.3571008,-7.812055 9.4111278,-7.7470128 9.4634453,-7.6824783 9.5140858,-7.6184418 9.5630819,-7.5548937 9.6104661,-7.4918241 9.6562711,-7.4292235 9.7005295,-7.3670821 9.7432738,-7.3053902 9.7845366,-7.2441381 9.8243505,-7.1833161 9.8627481,-7.1229145 9.8997621,-7.0629235 9.9354249,-7.0033335 9.9697691,-6.9441348 10.0028274,-6.8853176 10.0346324,-6.8268723 10.0652166,-6.7687891 10.0946126,-6.7110584 10.122853,-6.6536704 10.1499703,-6.5966153 10.1759978,-6.5398803 10.2009678,-6.4834534 10.2249122,-6.4273252 10.2478629,-6.3714862 10.2698518,-6.3159269 10.2909108,-6.2606379 10.3110718,-6.2056096 10.3303667,-6.1508325 10.3488275,-6.0962972 10.3664859,-6.0419942 10.3833739,-5.9879139 10.3995233,-5.934047 10.4149662,-5.8803838 10.4297344,-5.826915 10.4438597,-5.7736311 10.4573742,-5.7205225 10.4703096,-5.6675797 10.4945709,-5.5621538 10.516899,-5.4572775 10.5375489,-5.3528749 10.5567759,-5.2488701 10.5748352,-5.1451872 10.5919818,-5.0417503 10.6084711,-4.9384835 10.6404968,-4.7321713 10.6729421,-4.5257146 10.6899566,-4.422242 10.7078374,-4.3185028 10.7268385,-4.2144193 10.7472136,-4.1099137 10.7692168,-4.0049081 10.7931018,-3.8993249 10.8191227,-3.7930862 10.8330133,-3.7396967 10.8475331,-3.6861142 10.8627138,-3.632329 10.878587,-3.5783312 10.8951847,-3.5241113 10.9125384,-3.4696594 10.9306799,-3.4149659 10.949641,-3.360021 10.9694534,-3.304815 10.9901488,-3.2493382 11.0117592,-3.1935783 11.0343179,-3.1375167 11.0578582,-3.0811425 11.0824134,-3.024446 11.1080167,-2.9674172 11.1347012,-2.9100461 11.1625004,-2.8523228 11.1914474,-2.7942373 11.2215754,-2.7357798 11.2529177,-2.6769402 11.2855076,-2.6177087 11.3193782,-2.5580752 11.3545629,-2.49803 11.3910948,-2.4375629 11.4290072,-2.3766641 11.4683333,-2.3153236 11.5091065,-2.2535316 11.5513599,-2.191278 11.5951267,-2.1285529 11.6404402,-2.0653463 11.6873337,-2.0016485 11.7358404,-1.9374493 11.7859935,-1.8727388 11.8378263,-1.8075072 11.8913721,-1.7417445 11.9466639,-1.6754407 12.0037352,-1.6085859 12.0626191,-1.5411701 12.1233489,-1.4731835 12.1859578,-1.404616 12.2504791,-1.3354578 12.316946,-1.2656989 12.316946,-1.2656989 12.3847894,-1.1957686 12.4534516,-1.1261074 12.5229184,-1.0567829 12.5931756,-0.9878625 12.664209,-0.9194138 12.7360044,-0.8515041 12.8085475,-0.7842011 12.8818243,-0.7175721 12.9558204,-0.6516848 13.0305217,-0.5866065 13.105914,-0.5224048 13.181983,-0.4591471 13.2587147,-0.396901 13.3360947,-0.3357339 13.4141089,-0.2757134 13.492743,-0.2169069 13.571983,-0.1593819 13.6518321,-0.1031933 13.7325172,-0.0482418 13.8141093,0.005448 13.8966058,0.057797 13.9800039,0.1087261 14.0643006,0.1581564 14.1494934,0.2060086 14.2355793,0.2522037 14.3225557,0.2966627 14.4104196,0.3393065 14.4991684,0.3800559 14.5887992,0.418832 14.6793093,0.4555557 14.7706959,0.4901478 14.8167169,0.5066198 14.8629539,0.5225286 14.9092966,0.5378303 14.9556862,0.5525031 15.0021255,0.5665459 15.0486174,0.5799578 15.0951645,0.5927378 15.1417699,0.6048848 15.1884362,0.616398 15.2351664,0.6272763 15.2819631,0.6375188 15.3288293,0.6471245 15.3757677,0.6560924 15.4227813,0.6644216 15.4698727,0.6721109 15.5170448,0.6791596 15.5643005,0.6855665 15.6116425,0.6913308 15.6590737,0.6964514 15.7065969,0.7009273 15.7542148,0.7047576 15.8019304,0.7079413 15.8497465,0.7104774 15.8976658,0.712365 15.9456912,0.713603 15.9938255,0.7141905 16.0420715,0.7141265 16.0904321,0.7134101 16.13891,0.7120401 16.1875081,0.7100157 16.2362292,0.707336 16.2850635,0.704001 16.3339079,0.7000218 16.382741,0.6954053 16.4315654,0.6901562 16.4803839,0.6842793 16.529199,0.6777795 16.5780133,0.6706614 16.6268296,0.66293 16.6756504,0.65459 16.7733162,0.6361034 16.8710317,0.6152401 16.9688181,0.5920384 17.0666964,0.5665368 17.1646878,0.5387737 17.2628132,0.5087875 17.3610939,0.4766165 17.4595508,0.4422992 17.5582051,0.405874 17.6570778,0.3673793 17.75619,0.3268534 17.8555629,0.2843348 17.9552174,0.2398619z" transform="matrix(1,0,0,-1,26.6066299,9.0583818)" stroke="rgb(100,100,100)" stroke-width="0.0010cm" stroke-linecap="round" stroke-linejoin="round" fill="none" /><path d="M-26.5812439,-8.7937191 L-26.5812439,-8.7937191 -26.574036,-8.7044225 -26.5695496,-8.6599522 -26.5644719,-8.6155988 -26.5588005,-8.5713609 -26.552533,-8.5272371 -26.5456671,-8.4832261 -26.5382004,-8.4393265 -26.5301305,-8.3955369 -26.5214552,-8.3518559 -26.512172,-8.3082823 -26.5022787,-8.2648145 -26.4917728,-8.2214513 -26.480652,-8.1781913 -26.468914,-8.1350331 -26.4565564,-8.0919754 -26.4435801,-8.0490272 -26.4300215,-8.0063031 -26.4158944,-7.9638318 -26.4012032,-7.9216093 -26.3859521,-7.8796318 -26.3701454,-7.8378952 -26.3368821,-7.7551288 -26.3014475,-7.6732786 -26.2638757,-7.5923128 -26.2242007,-7.5121998 -26.1824567,-7.4329077 -26.1387415,-7.3545196 -26.0932459,-7.2772483 -26.0460491,-7.2010756 -25.9972265,-7.1259753 -25.9468533,-7.0519216 -25.8950048,-6.9788883 -25.8417564,-6.9068494 -25.7871834,-6.8357789 -25.7313611,-6.7656509 -25.6743647,-6.6964392 -25.6162697,-6.6281178 -25.5571513,-6.5606608 -25.4970848,-6.4940421 -25.4361455,-6.4282357 -25.3744087,-6.3632155 -25.3119496,-6.2989553 -25.2487327,-6.2353193 -25.1847302,-6.1721889 -25.1199989,-6.1095338 -25.0545954,-6.0473236 -24.9885763,-5.985528 -24.9219982,-5.9241166 -24.7873921,-5.802325 -24.6512301,-5.6817057 -24.5139657,-5.5620158 -24.2379421,-5.3244529 -24.1000895,-5.2060939 -23.9629473,-5.0876927 -23.8269688,-4.9690062 -23.6926073,-4.8497917 -23.6261745,-4.7899105 -23.5603159,-4.7298062 -23.4950882,-4.6694484 -23.430548,-4.6088067 -23.366752,-4.5478508 -23.3037567,-4.4865503 -23.241619,-4.4248749 -23.1803954,-4.3627941 -23.1803954,-4.3627941 -23.1388948,-4.3125324 -23.0981903,-4.2615568 -23.0583387,-4.2098685 -23.0193968,-4.1574685 -22.9814213,-4.1043579 -22.944469,-4.0505376 -22.9085967,-3.9960087 -22.8738611,-3.9407723 -22.8403189,-3.8848295 -22.808027,-3.8281812 -22.7770421,-3.7708286 -22.747421,-3.7127726 -22.7192204,-3.6540144 -22.6924971,-3.5945549 -22.6673079,-3.5343953 -22.6437623,-3.4736828 -22.6219762,-3.4126438 -22.6019667,-3.3512731 -22.5837497,-3.2895631 -22.5673412,-3.2275058 -22.5527569,-3.1650934 -22.5400128,-3.1023182 -22.5291249,-3.0391723 -22.5201089,-2.9756478 -22.512981,-2.911737 -22.5077568,-2.8474321 -22.5044524,-2.7827252 -22.5030837,-2.7176095 -22.5036569,-2.6524631 -22.5061343,-2.587597 -22.5104669,-2.5230133 -22.5166055,-2.4587136 -22.5245009,-2.3947001 -22.5341041,-2.3309744 -22.5453658,-2.2675386 -22.558237,-2.2043945 -22.5726684,-2.141544 -22.588611,-2.0789889 -22.6060156,-2.0167312 -22.624833,-1.9547728 -22.6450142,-1.8931155 -22.6665098,-1.8317612 -22.6892709,-1.7707118 -22.7132808,-1.7098888 -22.738551,-1.6491648 -22.7650489,-1.5885347 -22.7927418,-1.5279953 -22.8215967,-1.4675431 -22.8515807,-1.4071745 -22.8826607,-1.3468863 -22.914804,-1.2866749 -22.9479775,-1.2265369 -22.9821484,-1.1664689 -23.0172836,-1.1064674 -23.0533503,-1.046529 -23.0903155,-0.9866503 -23.1281463,-0.9268278 -23.1668098,-0.8670581 -23.206273,-0.8073377 -23.2465029,-0.7476633 -23.2874668,-0.6880313 -23.3291316,-0.6284384 -23.3714643,-0.5688811 -23.4144321,-0.509356 -23.5021412,-0.3903884 -23.5919954,-0.2715083 -23.6837311,-0.1526881 -23.7770849,-0.0339003 -23.8717934,0.0848826 -23.9675931,0.203688 -24.1614121,0.4414766 -24.3564343,0.6796853 -24.5504858,0.918472 -24.6464585,1.0381262 -24.7413702,1.1579874 -24.8349518,1.2780803 -24.9269341,1.3984297 -25.017048,1.5190604 -25.1050243,1.6399972 -25.1481268,1.7005882 -25.1905939,1.7612649 -25.2323921,1.8220305 -25.2734876,1.8828882 -25.3138469,1.943841 -25.3534363,2.0048919 -25.3922221,2.0660442 -25.4301708,2.1273008 -25.4672486,2.188665 -25.5034219,2.2501397 -25.5386571,2.3117282 -25.5729205,2.3734334 -25.6062109,2.4353199 -25.6386485,2.4976995 -25.6701942,2.5606076 -25.7007842,2.6240349 -25.730355,2.6879719 -25.7588428,2.7524094 -25.786184,2.8173379 -25.8123149,2.8827482 -25.837172,2.9486308 -25.8606914,3.0149765 -25.8828097,3.0817758 -25.9034631,3.1490195 -25.922588,3.2166981 -25.9401207,3.2848024 -25.9559975,3.3533229 -25.9701549,3.4222503 -25.9701549,3.4222503 -25.9968299,3.5145349 -26.0221746,3.6072423 -26.0461414,3.7003467 -26.0686825,3.7938224 -26.0897504,3.8876438 -26.1092974,3.981785 -26.1272757,4.0762205 -26.1436378,4.1709244 -26.1583359,4.2658712 -26.1713224,4.361035 -26.1825496,4.4563901 -26.1919699,4.5519109 -26.1995355,4.6475717 -26.2051989,4.7433467 -26.2089123,4.8392102 -26.2106275,4.9351093 -26.210298,5.0308796 -26.2078859,5.1264724 -26.2033541,5.221858 -26.1966653,5.3170069 -26.1877825,5.4118895 -26.1766685,5.5064761 -26.1632862,5.600737 -26.1475984,5.6946427 -26.129568,5.7881636 -26.1196627,5.8347705 -26.1091578,5.88127 -26.0980486,5.9276585 -26.0863306,5.9739323 -26.0739991,6.0200876 -26.0610494,6.0661209 -26.047477,6.1120282 -26.0332866,6.1577752 -26.0185097,6.2032517 -26.0031501,6.2484461 -25.9872088,6.2933564 -25.970687,6.3379804 -25.9535858,6.382316 -25.9359062,6.4263608 -25.9176495,6.4701129 -25.8988166,6.5135699 -25.8794087,6.5567298 -25.8594269,6.5995904 -25.8388722,6.6421494 -25.8177459,6.6844048 -25.7960489,6.7263543 -25.7737825,6.7679957 -25.7509476,6.809327 -25.7275454,6.8503459 -25.703577,6.8910502 -25.6790436,6.9314378 -25.6539461,6.9715066 -25.6282857,7.0112542 -25.6020635,7.0506787 -25.5752807,7.0897777 -25.5479382,7.1285492 -25.5200373,7.1669909 -25.491579,7.2051007 -25.4625644,7.2428764 -25.4329946,7.2803158 -25.4028707,7.3174168 -25.3722082,7.3541602 -25.3410798,7.3904621 -25.3095009,7.4263116 -25.2774773,7.4617092 -25.2450151,7.4966553 -25.2121203,7.5311502 -25.1787989,7.5651944 -25.1450569,7.5987882 -25.1109002,7.631932 -25.076335,7.6646263 -25.0060028,7.7286676 -24.9341082,7.7909154 -24.8606992,7.8513726 -24.785824,7.9100426 -24.7095305,7.9669284 -24.6318667,8.0220332 -24.5528806,8.07536 -24.4726204,8.1269121 -24.3911339,8.1766926 -24.3084693,8.2247046 -24.2246746,8.2709513 -24.1398142,8.3154288 -24.054012,8.3581105 -23.9673196,8.3990029 -23.8797784,8.438117 -23.7914297,8.4754638 -23.702315,8.5110541 -23.6124756,8.5448992 -23.5219528,8.5770098 -23.4307882,8.6073971 -23.339023,8.636072 -23.2466987,8.6630454 -23.1538566,8.6883284 -23.0605381,8.711932 -22.9667845,8.7338671 -22.8726373,8.7541448 -22.7781378,8.7727759 -22.6833275,8.7897716 -22.5882476,8.8051428 -22.4929396,8.8189004 -22.3974448,8.8310555 -22.3018047,8.8416191 -22.2060507,8.8506035 -22.1101363,8.8580297 -22.0140698,8.8639063 -21.917878,8.8682388 -21.8215873,8.8710328 -21.7252242,8.872294 -21.6288153,8.8720278 -21.5323871,8.8702399 -21.4359661,8.8669359 -21.339579,8.8621213 -21.2432521,8.8558016 -21.1470121,8.8479826 -21.0508855,8.8386697 -20.9548988,8.8278686 -20.8590786,8.8155848 -20.7634514,8.801824 -20.6680437,8.7865916 -20.5728821,8.7698933 -20.4779931,8.7517346 -20.3834032,8.7321211 -20.2891391,8.7110585 -20.1952271,8.6885523 -20.1016938,8.664608 -20.0085659,8.6392313 -19.9158698,8.6124277 -19.8236323,8.5842029 -19.7318772,8.5545621 -19.6406247,8.5235092 -19.5498954,8.4910486 -19.4597095,8.4571843 -19.3700876,8.4219205 -19.2810499,8.3852614 -19.192617,8.347211 -19.1048091,8.3077737 -19.0176467,8.2669535 -18.9311502,8.2247546 -18.84534,8.1811811 -18.7602365,8.1362373 -18.67586,8.0899272 -18.592231,8.042255 -18.5093699,7.9932249 -18.427297,7.942841 -18.3460328,7.8911075 -18.2655976,7.8380286 -18.1860119,7.7836084 -18.107296,7.727851 -18.0294704,7.6707607 -17.9525555,7.6123415 -17.9525555,7.6123415 -17.8799851,7.5565846 -17.8094398,7.5008267 -17.7408934,7.4450662 -17.6743193,7.3893014 -17.6096913,7.3335306 -17.546983,7.2777521 -17.486168,7.2219642 -17.4272199,7.1661652 -17.3701124,7.1103534 -17.3148192,7.0545271 -17.2613137,6.9986846 -17.2095698,6.9428243 -17.1595609,6.8869444 -17.1112608,6.8310431 -17.0646431,6.775119 -17.0196814,6.7191701 -16.9763493,6.6631949 -16.9346205,6.6071916 -16.8944686,6.5511586 -16.8558672,6.4950941 -16.8187106,6.4388688 -16.7828145,6.3821952 -16.7481776,6.3250519 -16.714805,6.2674271 -16.6827019,6.2093095 -16.6518736,6.1506874 -16.6223251,6.0915492 -16.5940618,6.0318835 -16.5670887,5.9716787 -16.5414111,5.9109232 -16.5170342,5.8496054 -16.4939631,5.7877139 -16.4722029,5.725237 -16.451759,5.6621632 -16.4326365,5.5984809 -16.4148405,5.5341787 -16.3983763,5.4692449 -16.383249,5.4036679 -16.3694686,5.3374617 -16.3571174,5.2711052 -16.3461918,5.204785 -16.3366491,5.138503 -16.3284468,5.0722606 -16.3215425,5.0060596 -16.3158935,4.9399016 -16.3114574,4.8737882 -16.3081916,4.807721 -16.3060536,4.7417017 -16.3050009,4.675732 -16.3049908,4.6098134 -16.305981,4.5439475 -16.3079289,4.4781362 -16.3107918,4.4123808 -16.3145274,4.3466832 -16.3190931,4.2810449 -16.3244463,4.2154676 -16.3305445,4.1499528 -16.3373452,4.0845023 -16.3448058,4.0191177 -16.3528839,3.9538006 -16.3707222,3.8233755 -16.3905198,3.6932401 -16.4119365,3.5634074 -16.434632,3.4338906 -16.4582661,3.3047028 -16.4824995,3.1758572 -16.5314123,2.9192377 -16.5554154,2.791485 -16.5786655,2.6641177 -16.6008245,2.5371464 -16.6215542,2.4105817 -16.6405166,2.2844341 -16.6573736,2.1587142 -16.6649069,2.096018 -16.671787,2.0334327 -16.6779717,1.9709596 -16.6834187,1.9086 -16.6880858,1.8463553 -16.6919306,1.7842268 -16.694911,1.7222158 -16.6969846,1.660326 -16.6981087,1.5985911 -16.6982428,1.5370214 -16.6973467,1.4756165 -16.6953804,1.4143759 -16.6923038,1.3532992 -16.6880768,1.2923861 -16.6826594,1.2316361 -16.6760113,1.1710488 -16.6680927,1.1106239 -16.6588632,1.0503608 -16.648283,0.9902592 -16.6363118,0.9303188 -16.6229096,0.870539 -16.6080363,0.8109196 -16.5916519,0.75146 -16.5737723,0.6923441 -16.5545176,0.6340025 -16.5339052,0.5764403 -16.5119469,0.5196437 -16.488655,0.4635991 -16.4640414,0.4082927 -16.4381181,0.3537108 -16.4108973,0.2998398 -16.3823909,0.2466658 -16.3526111,0.1941753 -16.3215699,0.1423545 -16.2892792,0.0911896 -16.2557513,0.0406671 -16.220998,-0.0092269 -16.1850316,-0.0585061 -16.1478639,-0.1071841 -16.1095071,-0.1552746 -16.1095071,-0.1552746 -16.0418908,-0.2375121 -15.9740247,-0.3185816 -15.9059186,-0.3985057 -15.8375823,-0.4773071 -15.7690254,-0.5550083 -15.7002578,-0.6316321 -15.6312892,-0.7072009 -15.5621294,-0.7817375 -15.4927882,-0.8552644 -15.4232752,-0.9278043 -15.3536002,-0.9993798 -15.2837731,-1.0700134 -15.2138035,-1.1397279 -15.1437013,-1.2085458 -15.0734761,-1.2764898 -15.0031378,-1.3435824 -14.932696,-1.4098464 -14.8621607,-1.4753042 -14.7915414,-1.5399786 -14.7208479,-1.6038921 -14.6500901,-1.6670674 -14.5792777,-1.729527 -14.5084204,-1.7912937 -14.437528,-1.8523899 -14.3666103,-1.9128384 -14.2956769,-1.9726618 -14.1538025,-2.0905236 -14.0119828,-2.2061561 -13.8702959,-2.3197405 -13.7288198,-2.4314576 -13.5876326,-2.5414884 -13.4468124,-2.6500138 -13.3064372,-2.7572147 -13.1665851,-2.8632722 -13.0273341,-2.9683671 -12.8887624,-3.0726804 -12.7509478,-3.1763931 -12.6139686,-3.2796861 -12.4779028,-3.3827403 -12.3428284,-3.4857367 -12.2088235,-3.5888562 -12.0759662,-3.6922798 -11.9443344,-3.7961884 -11.8140064,-3.900763 -11.6850601,-4.0061845 -11.5575735,-4.1126339 -11.4316219,-4.2202939 -11.3072792,-4.3293494 -11.2457362,-4.3844572 -11.1846253,-4.4399823 -11.1239567,-4.4959472 -11.0637403,-4.5523747 -11.003986,-4.6092876 -10.9447039,-4.6667087 -10.885904,-4.7246607 -10.8275962,-4.7831663 -10.7697906,-4.8422484 -10.7124971,-4.9019296 -10.6557257,-4.9622328 -10.5994865,-5.0231806 -10.5437894,-5.0847959 -10.4886444,-5.1471014 -10.4340616,-5.2101198 -10.3800508,-5.273874 -10.3266221,-5.3383866 -10.2737855,-5.4036804 -10.221551,-5.4697782 -10.1699286,-5.5367027 -10.1189282,-5.6044767 -10.0685599,-5.673123 -10.0188337,-5.7426643 -9.9697595,-5.8131233 -9.9213473,-5.8845228 -9.8736072,-5.9568856 -9.8265482,-6.0302356 -9.7801705,-6.1046107 -9.734482,-6.1800391 -9.6894935,-6.2565446 -9.6452161,-6.3341513 -9.6016606,-6.4128831 -9.558838,-6.4927639 -9.5167592,-6.5738177 -9.4754352,-6.6560685 -9.4348768,-6.7395401 -9.3950951,-6.8242566 -9.3561009,-6.9102419 -9.3179051,-6.99752 -9.2805188,-7.0861147 -9.2439528,-7.17605 -9.2082181,-7.26735 -9.1733256,-7.3600385 -9.1392862,-7.4541395 -9.1061109,-7.549677 -9.0738106,-7.6466749 -9.0423963,-7.7451571 -9.0118788,-7.8451476 -8.9822691,-7.9466703 -8.9535781,-8.0497493 -8.9258168,-8.1544083 -8.898996,-8.2606715 -8.8731268,-8.3685628 -8.8482201,-8.478106 -8.8242867,-8.5893252 -8.8013377,-8.7022443 -8.7793839,-8.8168873 -8.7584363,-8.933278 -8.7584363,-8.933278 -8.7316273,-9.0743229 -8.7190866,-9.1450306 -8.7071364,-9.215853 -8.6957877,-9.2867833 -8.6850514,-9.357815 -8.6749384,-9.4289415 -8.6654598,-9.500156 -8.6566265,-9.5714519 -8.6484495,-9.6428226 -8.6409396,-9.7142614 -8.6341079,-9.7857617 -8.6279654,-9.8573168 -8.6225229,-9.9289201 -8.6177915,-10.000565 -8.6137821,-10.0722447 -8.6105057,-10.1439527 -8.6079731,-10.2156823 -8.6061955,-10.2874268 -8.6051837,-10.3591797 -8.6049487,-10.4309342 -8.6055015,-10.5026837 -8.6068525,-10.5743995 -8.6090113,-10.6460494 -8.6119872,-10.7176269 -8.6157897,-10.7891257 -8.6204281,-10.8605392 -8.625912,-10.9318611 -8.6322506,-11.0030848 -8.6394534,-11.074204 -8.6475299,-11.1452122 -8.6564894,-11.216103 -8.6663414,-11.28687 -8.6770952,-11.3575066 -8.6887603,-11.4280065 -8.7013461,-11.4983632 -8.7148619,-11.5685702 -8.7293173,-11.6386212 -8.7447217,-11.7085097 -8.7610843,-11.7782293 -8.7784147,-11.8477735 -8.796712,-11.9170976 -8.8159344,-11.9860218 -8.8360765,-12.0545218 -8.8571383,-12.1225954 -8.87912,-12.1902401 -8.9020215,-12.2574539 -8.9258431,-12.3242343 -8.9505848,-12.390579 -8.9762467,-12.4564859 -9.0028288,-12.5219525 -9.0303313,-12.5869765 -9.0587543,-12.6515558 -9.0880978,-12.715688 -9.1183619,-12.7793708 -9.1495468,-12.8426018 -9.1816525,-12.9053789 -9.214679,-12.9676997 -9.2486266,-13.029562 -9.2834952,-13.0909634 -9.319285,-13.1519016 -9.3559961,-13.2123744 -9.3936285,-13.2723794 -9.4321823,-13.3319144 -9.4716576,-13.390977 -9.5120546,-13.4495651 -9.5533733,-13.5076762 -9.5956137,-13.5653081 -9.6387757,-13.622458 -9.6827619,-13.6790002 -9.727488,-13.7348387 -9.7729436,-13.7899764 -9.8191181,-13.8444162 -9.866001,-13.898161 -9.9135816,-13.9512137 -9.9618495,-14.0035773 -10.0107941,-14.0552545 -10.0604049,-14.1062484 -10.1106713,-14.1565618 -10.1615827,-14.2061976 -10.2131286,-14.2551588 -10.2652985,-14.3034482 -10.3180818,-14.3510688 -10.371468,-14.3980235 -10.4254465,-14.4443151 -10.4800068,-14.4899465 -10.5351383,-14.5349208 -10.5908305,-14.5792407 -10.6470728,-14.6229092 -10.7038547,-14.6659292 -10.7611656,-14.7083036 -10.818995,-14.7500353 -10.8773323,-14.7911272 -10.936167,-14.8315822 -10.9954886,-14.8714032 -11.0552865,-14.9105931 -11.1155501,-14.9491549 -11.1762689,-14.9870913 -11.2374323,-15.0244055 -11.2990299,-15.0611001 -11.3610876,-15.0972001 -11.4236731,-15.132752 -11.4867827,-15.1677579 -11.5504108,-15.2022185 -11.6145515,-15.2361344 -11.6791991,-15.2695062 -11.7443478,-15.3023346 -11.8099919,-15.3346204 -11.8761256,-15.366364 -11.9427431,-15.3975662 -12.0098386,-15.4282277 -12.0774064,-15.458349 -12.1454408,-15.4879309 -12.2139359,-15.5169739 -12.2828861,-15.5454789 -12.3522854,-15.5734463 -12.4221282,-15.6008769 -12.4924088,-15.6277713 -12.5631212,-15.6541301 -12.6342599,-15.6799541 -12.7058189,-15.7052439 -12.7777926,-15.7300001 -12.8501752,-15.7542234 -12.9229609,-15.7779145 -12.9961439,-15.8010739 -13.0697185,-15.8237024 -13.1436789,-15.8458006 -13.2180194,-15.8673692 -13.2927342,-15.8884088 -13.3678174,-15.90892 -13.4432635,-15.9289036 -13.5190665,-15.9483602 -13.5952207,-15.9672904 -13.6717205,-15.9856949 -13.7485599,-16.0035743 -13.8257332,-16.0209294 -13.9032347,-16.0377607 -13.9810586,-16.0540689 -14.0591991,-16.0698546 -14.1376505,-16.0851186 -14.216407,-16.0998615 -14.2954629,-16.1140839 -14.4544495,-16.1409699 -14.6145013,-16.1657683 -14.7755067,-16.1884723 -14.9374129,-16.209089 -15.1001672,-16.2276252 -15.2637168,-16.244088 -15.428009,-16.2584842 -15.592991,-16.2708208 -15.7586099,-16.2811049 -15.9248132,-16.2893432 -16.0915479,-16.2955429 -16.2587614,-16.2997108 -16.4264009,-16.3018539 -16.5944136,-16.3019792 -16.7627467,-16.3000935 -16.9313475,-16.2962039 -17.1001632,-16.2903173 -17.2691411,-16.2824407 -17.4382284,-16.272581 -17.6073723,-16.2607452 -17.77652,-16.2469401 -17.9456189,-16.2311729 -18.1146162,-16.2134504 -18.283459,-16.1937796 -18.4520946,-16.1721674 -18.6204703,-16.1486208 -18.7885333,-16.1231468 -18.9562308,-16.0957522 -19.12351,-16.0664441 -19.2903183,-16.0352295 -19.4566028,-16.0021151 -19.6223108,-15.9671081 -19.7873895,-15.9302154 -19.9517864,-15.8914438 -20.1158094,-15.8507083 -20.2797157,-15.8079201 -20.4434255,-15.7630681 -20.6068594,-15.7161414 -20.7699376,-15.6671289 -20.9325808,-15.6160197 -21.0947092,-15.5628028 -21.2562433,-15.5074672 -21.4171036,-15.4500019 -21.5772104,-15.390396 -21.7364842,-15.3286384 -21.8948454,-15.2647182 -21.9736589,-15.2319437 -22.0522144,-15.1986244 -22.130502,-15.164759 -22.2085117,-15.130346 -22.2862336,-15.0953842 -22.3636577,-15.059872 -22.4407741,-15.0238082 -22.5175728,-14.9871914 -22.5940439,-14.9500203 -22.6701774,-14.9122933 -22.7459634,-14.8740092 -22.821392,-14.8351667 -22.8964531,-14.7957642 -22.9711369,-14.7558005 -23.0454334,-14.7152741 -23.1193327,-14.6741838 -23.1928248,-14.632528 -23.2658997,-14.5903056 -23.3385475,-14.547515 -23.4107583,-14.5041549 -23.4825222,-14.4602239 -23.5538291,-14.4157207 -23.5538291,-14.4157207 -23.6562464,-14.3505416 -23.7569563,-14.2851504 -23.8559569,-14.2195212 -23.9532462,-14.1536285 -24.0488221,-14.0874464 -24.1426826,-14.0209492 -24.2348258,-13.9541113 -24.3252496,-13.8869068 -24.4139521,-13.8193101 -24.5009313,-13.7512953 -24.5861851,-13.6828368 -24.6697116,-13.6139089 -24.7515087,-13.5444857 -24.8315746,-13.4745417 -24.9099071,-13.4040509 -24.9865042,-13.3329878 -25.0613641,-13.2613265 -25.1344846,-13.1890414 -25.2058639,-13.1161066 -25.2754998,-13.0424966 -25.3433904,-12.9681855 -25.4095338,-12.8931476 -25.4739278,-12.8173571 -25.5365649,-12.7407953 -25.5974074,-12.6634822 -25.6564503,-12.5854024 -25.7136955,-12.5065322 -25.7691448,-12.4268479 -25.8228001,-12.346326 -25.8746632,-12.2649428 -25.9247361,-12.1826747 -25.9730205,-12.0994981 -26.0195184,-12.0153892 -26.0642316,-11.9303246 -26.107162,-11.8442805 -26.1483114,-11.7572334 -26.1876818,-11.6691596 -26.2252749,-11.5800354 -26.2610927,-11.4898373 -26.295137,-11.3985416 -26.3274097,-11.3061247 -26.3579126,-11.212563 -26.3866532,-11.1178149 -26.4136477,-11.0218019 -26.4388935,-10.9244934 -26.4623867,-10.8258625 -26.4841235,-10.7258823 -26.5041002,-10.624526 -26.522313,-10.5217667 -26.5387579,-10.4175773 -26.5534314,-10.3119311 -26.5663295,-10.2048012 -26.5774484,-10.0961606 -26.5867843,-9.9859825 -26.5943335,-9.8742399 -26.5974368,-9.8177736 -26.6000921,-9.760906 -26.6022987,-9.7036339 -26.6040563,-9.6459539 -26.6053643,-9.5878626 -26.6062223,-9.5293566 -26.6066299,-9.4704327 -26.6065864,-9.4110873 -26.6060915,-9.3513173 -26.6051447,-9.2911191 -26.6037455,-9.2304895 -26.6018934,-9.1694251 -26.5995879,-9.1079225 -26.5968287,-9.0459783 -26.5936151,-8.9835893 -26.5899468,-8.920752 -26.5858232,-8.857463 -26.5812439,-8.7937191z" transform="matrix(1,0,0,-1,26.6066299,9.0583818)" stroke="rgb(100,100,100)" stroke-width="0.0010cm" stroke-linecap="round" stroke-linejoin="round" fill="none" /></svg>