<svg width="501" height="453" viewBox="0 0 501 453" fill="none" xmlns="http://www.w3.org/2000/svg">
<path d="M447.962 451.181C421.676 457.588 394.388 445.47 373.426 429.323C352.465 413.176 335.146 392.794 312.92 378.283C272.028 351.588 219.882 347.822 170.452 343.16C121.021 338.499 68.4613 330.71 32.0332 298.618C-4.39787 266.526 -13.1312 201.806 27.2757 173.404C61.9462 149.034 113.059 162.035 149.701 140.533C182.195 121.468 193.271 81.8647 216.002 52.4808C249.12 9.66817 311.356 -10.0493 363.793 5.65572C485.792 42.1933 434.212 149.996 451.525 237.037C462.74 293.427 557.069 424.588 447.962 451.181Z" fill="url(#paint0_linear_2581_4491)"/>
<defs>
<linearGradient id="paint0_linear_2581_4491" x1="298.857" y1="-19.0044" x2="294.859" y2="412.808" gradientUnits="userSpaceOnUse">
<stop stop-color="#0D6CB9"/>
<stop offset="1" stop-color="#D85632"/>
</linearGradient>
</defs>
</svg>
